<?xml version="1.0" encoding="utf-8"?>
<!-- Generator: Adobe Illustrator 27.2.0, SVG Export Plug-In . SVG Version: 6.00 Build 0)  -->
<svg version="1.1" id="Layer_1" xmlns="http://www.w3.org/2000/svg" xmlns:xlink="http://www.w3.org/1999/xlink" x="0px" y="0px"
	 viewBox="0 0 562.7 177.7" style="enable-background:new 0 0 562.7 177.7;" xml:space="preserve">
<style type="text/css">
	.st0{fill:#FFFFFF;}
</style>
<g>
	<path class="st0" d="M367.4,6.1h-45.7c-2.8,0-4.2,1.4-4.2,4.2V75c0,2.8,1.4,4.2,4.2,4.2h45.7c2.8,0,4.2-1.4,4.2-4.2v-3.7
		c0-2.8-1.4-4.2-4.2-4.2h-33.8c-2.8,0-4.2-1.4-4.2-4.1V52.8c0-2.8,1.4-4.2,4.2-4.2h19.9c2.8,0,4.2-1.4,4.2-4.2v-3.6
		c0-2.8-1.4-4.2-4.2-4.2h-19.9c-2.8,0-4.2-1.4-4.2-4.2V22.3c0-2.8,1.4-4.2,4.2-4.2h33.8c2.8,0,4.2-1.4,4.2-4.2v-3.7
		C371.6,7.5,370.2,6.1,367.4,6.1z"/>
	<path class="st0" d="M504.5,18.1h45.7c2.8,0,4.2-1.4,4.2-4.2v-3.7c0-2.8-1.4-4.2-4.2-4.2h-45.7c-2.8,0-4.2,1.4-4.2,4.2v3.7
		C500.3,16.7,501.7,18.1,504.5,18.1z"/>
	<path class="st0" d="M504.5,79.1h45.7c2.8,0,4.2-1.4,4.2-4.2v-3.7c0-2.8-1.4-4.2-4.2-4.2h-45.7c-2.8,0-4.2,1.4-4.2,4.2V75
		C500.3,77.8,501.7,79.1,504.5,79.1z"/>
	<path class="st0" d="M504.5,48.6h31.8c2.8,0,4.2-1.4,4.2-4.2v-3.7c0-2.8-1.4-4.2-4.2-4.2h-31.8c-2.8,0-4.2,1.4-4.2,4.2v3.7
		C500.3,47.2,501.7,48.6,504.5,48.6z"/>
	<path class="st0" d="M29.4,20.5c3.8-2.3,8-3.4,12.5-3.4c5.5,0,10.4,1.7,14.8,5.1l1.4,1c1,0.7,1.8,1.1,2.6,1.1
		c1.1,0,2.2-0.6,3.2-1.9l2.1-2.8c0.8-1.1,1.2-2.1,1.2-3c0-0.9-0.4-1.6-1.1-2.2l-2.3-1.8c-6.5-5-13.8-7.5-21.9-7.5
		c-6.6,0-12.7,1.7-18.3,5c-5.6,3.3-10,7.9-13.3,13.7s-4.9,12-4.9,18.9c0,6.8,1.6,13.1,4.9,18.9c3.3,5.8,7.7,10.3,13.3,13.7
		c5.6,3.3,11.7,5,18.3,5c8.1,0,15.4-2.5,21.9-7.5l1.4-1.2c1.2-1,1.8-2,1.8-3.2c0-0.8-0.3-1.7-1-2.7l-2.1-2.8
		c-1.2-1.5-2.2-2.2-3.3-2.2c-0.5,0-1,0.2-1.5,0.6l-2.4,1.9c-4.3,3.4-9.3,5.1-14.8,5.1c-4.5,0-8.7-1.1-12.5-3.4
		c-3.8-2.3-6.8-5.4-9-9.3c-2.2-3.9-3.3-8.2-3.3-12.8c0-4.6,1.1-8.9,3.3-12.8C22.6,25.9,25.6,22.8,29.4,20.5z"/>
	<path class="st0" d="M151.6,77.8c0.3-0.4,0.5-0.9,0.5-1.5c0-0.6-0.2-1.2-0.5-2l-26-65c-0.8-2.2-2.4-3.3-4.8-3.3h-6.1
		c-2.4,0-4,1.1-4.8,3.3l-26,65c-0.3,0.7-0.5,1.4-0.5,2c0,0.5,0.2,1,0.5,1.5c0.6,0.9,1.7,1.3,3.2,1.3h4.4c2.4,0,4-1.1,4.8-3.2
		l3.6-8.8c0.8-2.1,2.4-3.2,4.8-3.2h26.1c2.4,0,4,1.1,4.8,3.2l3.6,8.8c0.8,2.1,2.4,3.2,4.8,3.2h4.4C149.9,79.1,151,78.7,151.6,77.8z
		 M127.5,50.4c-0.6,0.9-1.7,1.3-3.3,1.3h-12.9c-1.6,0-2.6-0.4-3.3-1.3c-0.3-0.4-0.5-0.9-0.5-1.6c0-0.6,0.1-1.2,0.4-1.9l7-17.5
		c0.7-1.7,1.7-2.6,2.8-2.6c1.1,0,2.1,0.9,2.8,2.6l7,17.5c0.3,0.7,0.4,1.3,0.4,1.9C128,49.4,127.8,49.9,127.5,50.4z"/>
	<path class="st0" d="M203.8,53.1c-0.5-0.8-0.8-1.6-0.8-2.2c0-1.3,1-2.3,2.9-3.1c4-1.5,7.1-4,9.4-7.6c2.3-3.6,3.5-7.8,3.5-12.7
		c0-6.2-1.9-11.3-5.8-15.4c-3.9-4-8.7-6-14.6-6h-29.4c-2.8,0-4.2,1.4-4.2,4.2V75c0,2.8,1.4,4.2,4.2,4.2h3.3c2.8,0,4.2-1.4,4.2-4.2
		V53.3c0-2.8,1.4-4.2,4.2-4.2h3.4c2.1,0,3.8,0.9,5,2.6l17.4,24.9c1.3,1.7,3,2.6,5.1,2.6h4.4c1.7,0,2.8-0.5,3.3-1.4
		c0.1-0.3,0.2-0.7,0.3-1.1c0-0.7-0.3-1.6-1-2.6L203.8,53.1z M180.6,37.4c-2.8,0-4.2-1.4-4.2-4.2V22c0-2.8,1.4-4.2,4.2-4.2h17.7
		c2.9,0,5,0.9,6.5,2.8c1.5,1.9,2.2,4.2,2.2,6.9c0,2.8-0.8,5.1-2.3,7.1c-1.5,1.9-3.7,2.9-6.6,2.9H180.6z"/>
	<path class="st0" d="M443.1,72.3c1.5-1.3,2.3-2.9,2.3-5V41.6c0-2.8-1.4-4.2-4.2-4.2H421c-2.8,0-4.2,1.4-4.2,4.2v3.6
		c0,2.8,1.4,4.2,4.2,4.2h8.2c2.8,0,4.1,1.4,4.1,4.2V61c0,2.4-1,4-2.9,4.9c-3.3,1.5-6.8,2.3-10.4,2.3c-4.6,0-8.9-1.1-12.8-3.4
		c-3.9-2.3-7-5.4-9.3-9.3c-2.3-3.9-3.4-8.2-3.4-12.8c0-4.6,1.1-8.9,3.4-12.8c2.3-3.9,5.4-7,9.3-9.3c3.9-2.3,8.2-3.4,12.8-3.4
		c5.6,0,10.8,1.7,15.3,5.1l1.5,1.1c0.9,0.7,1.9,1.1,2.7,1.1c1.2,0,2.2-0.6,3.2-1.9l2.2-2.9c0.9-1.1,1.3-2.1,1.3-3
		c0-0.9-0.4-1.6-1.2-2.2l-2.4-1.8c-6.7-5-14.3-7.5-22.6-7.5c-5.1,0-10,1-14.6,3c-4.6,2-8.6,4.6-12,8c-3.4,3.4-6,7.4-8,12
		c-2,4.6-3,9.5-3,14.6c0,5.1,1,10,3,14.6c2,4.6,4.6,8.6,8,12c3.4,3.4,7.4,6,12,8c4.6,2,9.5,3,14.6,3
		C428.7,80.2,436.4,77.5,443.1,72.3z"/>
	<path class="st0" d="M470.2,79.1h3.5c2.8,0,4.2-1.4,4.2-4.2V10.3c0-2.8-1.4-4.2-4.2-4.2h-3.5c-2.8,0-4.2,1.4-4.2,4.2V75
		C466,77.8,467.4,79.1,470.2,79.1z"/>
	<path class="st0" d="M60.8,159.1H28.9c-2.8,0-4.2-1.4-4.2-4.1v-52.7c0-2.8-1.4-4.2-4.2-4.2H17c-2.8,0-4.2,1.4-4.2,4.2V167
		c0,2.8,1.4,4.2,4.2,4.2h43.8c2.8,0,4.2-1.4,4.2-4.2v-3.7C65,160.5,63.6,159.1,60.8,159.1z"/>
	<path class="st0" d="M190.1,101.3c-0.8-2.2-2.4-3.3-4.8-3.3h-6.1c-2.4,0-4,1.1-4.8,3.3l-26,65c-0.3,0.7-0.5,1.4-0.5,2
		c0,0.5,0.2,1,0.5,1.5c0.6,0.9,1.7,1.3,3.2,1.3h4.4c2.4,0,4-1.1,4.8-3.2l3.6-8.8c0.8-2.1,2.4-3.2,4.8-3.2h26.1c2.4,0,4,1.1,4.8,3.2
		l3.6,8.8c0.8,2.1,2.4,3.2,4.8,3.2h4.4c1.6,0,2.6-0.4,3.3-1.3c0.3-0.4,0.5-0.9,0.5-1.5c0-0.6-0.2-1.2-0.5-2L190.1,101.3z M192,142.4
		c-0.6,0.9-1.7,1.3-3.3,1.3h-12.9c-1.6,0-2.6-0.4-3.3-1.3c-0.3-0.4-0.5-0.9-0.5-1.6c0-0.6,0.1-1.2,0.4-1.9l7-17.5
		c0.7-1.7,1.7-2.6,2.8-2.6c1.1,0,2.1,0.9,2.8,2.6l7,17.5c0.3,0.7,0.4,1.3,0.4,1.9C192.5,141.4,192.4,141.9,192,142.4z"/>
	<path class="st0" d="M268.3,145.1c-0.5-0.8-0.8-1.6-0.8-2.2c0-1.3,1-2.3,2.9-3.1c4-1.5,7.1-4,9.4-7.6c2.3-3.6,3.5-7.8,3.5-12.7
		c0-6.2-1.9-11.3-5.8-15.4c-3.9-4-8.7-6-14.6-6h-29.4c-2.8,0-4.2,1.4-4.2,4.2V167c0,2.8,1.4,4.2,4.2,4.2h3.3c2.8,0,4.2-1.4,4.2-4.2
		v-21.7c0-2.8,1.4-4.2,4.2-4.2h3.4c2.1,0,3.8,0.9,5,2.6l17.4,24.9c1.3,1.7,3,2.6,5.1,2.6h4.4c1.7,0,2.8-0.5,3.3-1.4
		c0.1-0.3,0.2-0.7,0.3-1.1c0-0.7-0.3-1.6-1-2.6L268.3,145.1z M245.1,129.4c-2.8,0-4.2-1.4-4.2-4.2V114c0-2.8,1.4-4.2,4.2-4.2h17.7
		c2.9,0,5,0.9,6.5,2.8c1.5,1.9,2.2,4.2,2.2,6.9c0,2.8-0.8,5.1-2.3,7.1c-1.5,1.9-3.7,2.9-6.6,2.9H245.1z"/>
	<path class="st0" d="M390.1,98.1h-3.5c-2.8,0-4.2,1.4-4.2,4.2V167c0,2.8,1.4,4.2,4.2,4.2h3.5c2.8,0,4.2-1.4,4.2-4.2v-64.7
		C394.3,99.5,392.9,98.1,390.1,98.1z"/>
	<path class="st0" d="M473.7,98.2h-3.3c-2.8,0-4.2,1.4-4.2,4.2v40.7c0,2.1-0.5,3.3-1.7,3.6c-0.2,0.1-0.4,0.1-0.6,0
		c-1,0-1.9-0.7-2.9-2.1l-29.6-43.7c-1.2-1.8-2.9-2.8-5-2.8h-5.5c-2.8,0-4.2,1.4-4.2,4.2v64.7c0,2.8,1.4,4.2,4.2,4.2h3.3
		c2.8,0,4.2-1.4,4.2-4.2v-40.7c0-2,0.5-3.2,1.7-3.6c0.2-0.1,0.4-0.1,0.6-0.1c1,0,1.9,0.7,2.9,2.1l29.6,43.7c1.2,1.8,2.9,2.7,5,2.7
		h5.5c2.8,0,4.2-1.4,4.2-4.2v-64.7C477.9,99.6,476.5,98.2,473.7,98.2z"/>
	<path class="st0" d="M550.4,129.4h-20.2c-2.8,0-4.2,1.4-4.2,4.2v3.6c0,2.8,1.4,4.2,4.2,4.2h8.2c2.8,0,4.1,1.4,4.1,4.2v7.4
		c0,2.4-1,4-2.9,4.9c-3.3,1.5-6.8,2.3-10.4,2.3c-4.6,0-8.9-1.1-12.8-3.4c-3.9-2.3-7-5.4-9.3-9.3c-2.3-3.9-3.4-8.2-3.4-12.8
		c0-4.6,1.1-8.9,3.4-12.8c2.3-3.9,5.4-7,9.3-9.3c3.9-2.3,8.2-3.4,12.8-3.4c5.6,0,10.8,1.7,15.3,5.1l1.5,1.1c0.9,0.7,1.9,1.1,2.7,1.1
		c1.2,0,2.2-0.6,3.2-1.9l2.2-2.9c0.9-1.1,1.3-2.1,1.3-3c0-0.9-0.4-1.6-1.2-2.2l-2.4-1.8c-6.7-5-14.3-7.5-22.6-7.5
		c-5.1,0-10,1-14.6,3c-4.6,2-8.6,4.6-12,8c-3.4,3.4-6,7.4-8,12c-2,4.6-3,9.5-3,14.6c0,5.1,1,10,3,14.6c2,4.6,4.6,8.6,8,12
		c3.4,3.4,7.4,6,12,8c4.6,2,9.5,3,14.6,3c8.7,0,16.4-2.6,23.2-7.9c1.5-1.3,2.3-2.9,2.3-5v-25.7C554.6,130.8,553.2,129.4,550.4,129.4
		z"/>
	<path class="st0" d="M355.8,98.2h-3.3c-2.3,0-4.2,1.9-4.2,4.2v40.7c0,2.1-0.5,3.3-1.7,3.6c-0.2,0.1-0.4,0.1-0.6,0
		c-1,0-1.9-0.7-2.9-2.1l-29.6-43.7c-0.1-0.1-0.2-0.2-0.3-0.3l-14.5-21.3c-0.9-1.3-1.3-2.7-1.3-4.3V10.4c0-2.3-1.9-4.2-4.2-4.2H290
		c-2.3,0-4.2,1.9-4.2,4.2v40.7c0,2.1-0.5,3.3-1.7,3.6c-0.2,0.1-0.4,0.1-0.6,0c-0.8,0-1.6-0.6-2.5-1.6l-30-44.2
		c-1.2-1.8-2.9-2.8-5-2.8h-5.5c-2.3,0-4.2,1.9-4.2,4.2v64.7c0,2.3,1.9,4.2,4.2,4.2h3.3c2.3,0,4.2-1.9,4.2-4.2V34.4
		c0-2,0.5-3.2,1.7-3.6c0.2-0.1,0.4-0.1,0.6-0.1c1,0,1.9,0.7,2.9,2.1l29.6,43.7c0.1,0.1,0.2,0.2,0.2,0.3l14.5,21.3
		c0.9,1.3,1.3,2.7,1.3,4.3v64.6c0,2.3,1.9,4.2,4.2,4.2h3.3c2.3,0,4.2-1.9,4.2-4.2v-40.7c0-2,0.5-3.2,1.7-3.6
		c0.2-0.1,0.4-0.1,0.6-0.1c0.8,0,1.6,0.5,2.4,1.6l30.1,44.3c1.2,1.8,2.9,2.7,5,2.7h5.5c2.3,0,4.2-1.9,4.2-4.2v-64.7
		C360,100.1,358.1,98.2,355.8,98.2z"/>
	<path class="st0" d="M131.2,98.1H85.5c-2.8,0-4.2,1.4-4.2,4.2v3.7c0,2.8,1.4,4.2,4.2,4.2h45.7c2.8,0,4.2-1.4,4.2-4.2v-3.7
		C135.3,99.5,133.9,98.1,131.2,98.1z"/>
	<path class="st0" d="M131.2,159.1H85.5c-2.8,0-4.2,1.4-4.2,4.2v3.7c0,2.8,1.4,4.2,4.2,4.2h45.7c2.8,0,4.2-1.4,4.2-4.2v-3.7
		C135.3,160.5,133.9,159.1,131.2,159.1z"/>
	<path class="st0" d="M85.5,140.6h31.8c2.8,0,4.2-1.4,4.2-4.2v-3.7c0-2.8-1.4-4.2-4.2-4.2H85.5c-2.8,0-4.2,1.4-4.2,4.2v3.7
		C81.3,139.2,82.7,140.6,85.5,140.6z"/>
</g>
</svg>
